<mxfile host="app.diagrams.net" agent="Mozilla/5.0 (Windows NT 10.0; Win64; x64) AppleWebKit/537.36 (KHTML, like Gecko) Chrome/127.0.0.0 Safari/537.36" version="24.7.6">
  <diagram name="Página-1" id="XDH4dJ3otHWdcbqTBR5J">
    <mxGraphModel dx="874" dy="468" grid="1" gridSize="10" guides="1" tooltips="1" connect="1" arrows="1" fold="1" page="1" pageScale="1" pageWidth="827" pageHeight="1169" background="none" math="0" shadow="1">
      <root>
        <mxCell id="0" />
        <mxCell id="1" parent="0" />
        <mxCell id="7ThZCeeNwGK1asPZ2rKJ-1" value="Professor" style="shape=umlActor;verticalLabelPosition=bottom;verticalAlign=top;html=1;outlineConnect=0;" vertex="1" parent="1">
          <mxGeometry x="130" y="710" width="30" height="60" as="geometry" />
        </mxCell>
        <mxCell id="7ThZCeeNwGK1asPZ2rKJ-2" value="Aluno" style="shape=umlActor;verticalLabelPosition=bottom;verticalAlign=top;html=1;outlineConnect=0;" vertex="1" parent="1">
          <mxGeometry x="670" y="720" width="30" height="60" as="geometry" />
        </mxCell>
        <mxCell id="7ThZCeeNwGK1asPZ2rKJ-117" value="" style="rounded=0;whiteSpace=wrap;html=1;" vertex="1" parent="1">
          <mxGeometry x="240" y="480" width="360" height="460" as="geometry" />
        </mxCell>
        <mxCell id="7ThZCeeNwGK1asPZ2rKJ-119" value="Login" style="ellipse;whiteSpace=wrap;html=1;" vertex="1" parent="1">
          <mxGeometry x="330" y="570" width="90" height="40" as="geometry" />
        </mxCell>
        <mxCell id="7ThZCeeNwGK1asPZ2rKJ-120" value="Abrir Disciplina" style="ellipse;whiteSpace=wrap;html=1;" vertex="1" parent="1">
          <mxGeometry x="330" y="630" width="90" height="40" as="geometry" />
        </mxCell>
        <mxCell id="7ThZCeeNwGK1asPZ2rKJ-121" value="config. tempo chamada" style="ellipse;whiteSpace=wrap;html=1;" vertex="1" parent="1">
          <mxGeometry x="330" y="690" width="90" height="40" as="geometry" />
        </mxCell>
        <mxCell id="7ThZCeeNwGK1asPZ2rKJ-122" value="Responder Chamada" style="ellipse;whiteSpace=wrap;html=1;" vertex="1" parent="1">
          <mxGeometry x="330" y="750" width="90" height="40" as="geometry" />
        </mxCell>
        <mxCell id="7ThZCeeNwGK1asPZ2rKJ-123" value="Ver Presença" style="ellipse;whiteSpace=wrap;html=1;" vertex="1" parent="1">
          <mxGeometry x="330" y="810" width="90" height="40" as="geometry" />
        </mxCell>
        <mxCell id="7ThZCeeNwGK1asPZ2rKJ-124" value="&lt;b&gt;&lt;font style=&quot;font-size: 14px;&quot;&gt;Casos de caso de uso&amp;nbsp; Sistema de Chamada Digital&lt;/font&gt;&lt;/b&gt;" style="text;html=1;align=center;verticalAlign=middle;whiteSpace=wrap;rounded=0;" vertex="1" parent="1">
          <mxGeometry x="240" y="470" width="360" height="60" as="geometry" />
        </mxCell>
        <mxCell id="7ThZCeeNwGK1asPZ2rKJ-125" value="" style="endArrow=classic;html=1;rounded=0;entryX=0;entryY=0.5;entryDx=0;entryDy=0;" edge="1" parent="1" target="7ThZCeeNwGK1asPZ2rKJ-119">
          <mxGeometry width="50" height="50" relative="1" as="geometry">
            <mxPoint x="170" y="740" as="sourcePoint" />
            <mxPoint x="220" y="690" as="targetPoint" />
          </mxGeometry>
        </mxCell>
        <mxCell id="7ThZCeeNwGK1asPZ2rKJ-126" value="" style="endArrow=classic;html=1;rounded=0;entryX=0.067;entryY=0.675;entryDx=0;entryDy=0;entryPerimeter=0;" edge="1" parent="1" target="7ThZCeeNwGK1asPZ2rKJ-120">
          <mxGeometry width="50" height="50" relative="1" as="geometry">
            <mxPoint x="170" y="740" as="sourcePoint" />
            <mxPoint x="230" y="710" as="targetPoint" />
          </mxGeometry>
        </mxCell>
        <mxCell id="7ThZCeeNwGK1asPZ2rKJ-127" value="" style="endArrow=classic;html=1;rounded=0;entryX=0;entryY=0.5;entryDx=0;entryDy=0;" edge="1" parent="1" target="7ThZCeeNwGK1asPZ2rKJ-121">
          <mxGeometry width="50" height="50" relative="1" as="geometry">
            <mxPoint x="170" y="740" as="sourcePoint" />
            <mxPoint x="240" y="725" as="targetPoint" />
          </mxGeometry>
        </mxCell>
        <mxCell id="7ThZCeeNwGK1asPZ2rKJ-128" value="" style="endArrow=classic;html=1;rounded=0;entryX=1;entryY=0.5;entryDx=0;entryDy=0;" edge="1" parent="1" target="7ThZCeeNwGK1asPZ2rKJ-123">
          <mxGeometry width="50" height="50" relative="1" as="geometry">
            <mxPoint x="680" y="760" as="sourcePoint" />
            <mxPoint x="770" y="900" as="targetPoint" />
          </mxGeometry>
        </mxCell>
        <mxCell id="7ThZCeeNwGK1asPZ2rKJ-129" value="" style="endArrow=classic;html=1;rounded=0;entryX=1;entryY=0.5;entryDx=0;entryDy=0;" edge="1" parent="1" target="7ThZCeeNwGK1asPZ2rKJ-119">
          <mxGeometry width="50" height="50" relative="1" as="geometry">
            <mxPoint x="680" y="760" as="sourcePoint" />
            <mxPoint x="610" y="730" as="targetPoint" />
            <Array as="points" />
          </mxGeometry>
        </mxCell>
        <mxCell id="7ThZCeeNwGK1asPZ2rKJ-131" value="" style="endArrow=classic;html=1;rounded=0;entryX=1;entryY=0.5;entryDx=0;entryDy=0;" edge="1" parent="1" target="7ThZCeeNwGK1asPZ2rKJ-122">
          <mxGeometry width="50" height="50" relative="1" as="geometry">
            <mxPoint x="680" y="760" as="sourcePoint" />
            <mxPoint x="440" y="670" as="targetPoint" />
            <Array as="points" />
          </mxGeometry>
        </mxCell>
        <mxCell id="7ThZCeeNwGK1asPZ2rKJ-133" value="autenticar usuário" style="ellipse;whiteSpace=wrap;html=1;" vertex="1" parent="1">
          <mxGeometry x="500" y="570" width="90" height="40" as="geometry" />
        </mxCell>
        <mxCell id="7ThZCeeNwGK1asPZ2rKJ-150" value="" style="endArrow=none;html=1;rounded=0;exitX=1;exitY=0.5;exitDx=0;exitDy=0;shadow=0;dashed=1;" edge="1" parent="1" source="7ThZCeeNwGK1asPZ2rKJ-119" target="7ThZCeeNwGK1asPZ2rKJ-133">
          <mxGeometry width="50" height="50" relative="1" as="geometry">
            <mxPoint x="430" y="570" as="sourcePoint" />
            <mxPoint x="480" y="520" as="targetPoint" />
            <Array as="points" />
          </mxGeometry>
        </mxCell>
        <mxCell id="7ThZCeeNwGK1asPZ2rKJ-151" value="&amp;lt;&amp;lt;include&amp;gt;&amp;gt;" style="edgeLabel;html=1;align=center;verticalAlign=middle;resizable=0;points=[];" vertex="1" connectable="0" parent="7ThZCeeNwGK1asPZ2rKJ-150">
          <mxGeometry x="0.3671" relative="1" as="geometry">
            <mxPoint x="-15" y="-10" as="offset" />
          </mxGeometry>
        </mxCell>
      </root>
    </mxGraphModel>
  </diagram>
</mxfile>
